ISO-10303-21;
HEADER;
FILE_DESCRIPTION((''),'2;1');
FILE_NAME('block','2026-01-01T00:00:00',(''),(''),'step-viewer-demo','',' ');
FILE_SCHEMA(('AUTOMOTIVE_DESIGN { 1 0 10303 214 1 1 1 1 }'));
ENDSEC;
DATA;
#1=APPLICATION_CONTEXT('automotive design');
#2=APPLICATION_PROTOCOL_DEFINITION('international standard','automotive_design',2000,#1);
#3=PRODUCT('block','block','',(#4));
#4=PRODUCT_CONTEXT('',#1,'mechanical');
#5=PRODUCT_DEFINITION_FORMATION('','',#3);
#6=PRODUCT_DEFINITION_CONTEXT('part definition',#1,'design');
#7=PRODUCT_DEFINITION('','',#5,#6);
#8=PRODUCT_DEFINITION_SHAPE('','',#7);
#9=(LENGTH_UNIT()NAMED_UNIT(*)SI_UNIT(.MILLI.,.METRE.));
#10=(NAMED_UNIT(*)PLANE_ANGLE_UNIT()SI_UNIT($,.RADIAN.));
#11=(NAMED_UNIT(*)SI_UNIT($,.STERADIAN.)SOLID_ANGLE_UNIT());
#12=UNCERTAINTY_MEASURE_WITH_UNIT(LENGTH_MEASURE(1.E-07),#9,'distance_accuracy_value','confusion accuracy');
#13=(GEOMETRIC_REPRESENTATION_CONTEXT(3)GLOBAL_UNCERTAINTY_ASSIGNED_CONTEXT((#12))GLOBAL_UNIT_ASSIGNED_CONTEXT((#9,#10,#11))REPRESENTATION_CONTEXT('Context','3D'));
#14=CARTESIAN_POINT('',(0.000000,0.000000,0.000000));
#15=CARTESIAN_POINT('',(30.000000,0.000000,0.000000));
#16=CARTESIAN_POINT('',(30.000000,20.000000,0.000000));
#17=CARTESIAN_POINT('',(0.000000,20.000000,0.000000));
#18=CARTESIAN_POINT('',(0.000000,0.000000,10.000000));
#19=CARTESIAN_POINT('',(30.000000,0.000000,10.000000));
#20=CARTESIAN_POINT('',(30.000000,20.000000,10.000000));
#21=CARTESIAN_POINT('',(0.000000,20.000000,10.000000));
#22=VERTEX_POINT('',#14);
#23=VERTEX_POINT('',#15);
#24=VERTEX_POINT('',#16);
#25=VERTEX_POINT('',#17);
#26=VERTEX_POINT('',#18);
#27=VERTEX_POINT('',#19);
#28=VERTEX_POINT('',#20);
#29=VERTEX_POINT('',#21);
#30=DIRECTION('',(0.000000,1.000000,0.000000));
#31=VECTOR('',#30,1.0);
#32=CARTESIAN_POINT('',(0.000000,0.000000,0.000000));
#33=LINE('',#32,#31);
#34=EDGE_CURVE('',#22,#25,#33,.T.);
#35=ORIENTED_EDGE('',*,*,#34,.T.);
#36=DIRECTION('',(-1.000000,0.000000,0.000000));
#37=VECTOR('',#36,1.0);
#38=CARTESIAN_POINT('',(30.000000,20.000000,0.000000));
#39=LINE('',#38,#37);
#40=EDGE_CURVE('',#24,#25,#39,.T.);
#41=ORIENTED_EDGE('',*,*,#40,.F.);
#42=DIRECTION('',(0.000000,1.000000,0.000000));
#43=VECTOR('',#42,1.0);
#44=CARTESIAN_POINT('',(30.000000,0.000000,0.000000));
#45=LINE('',#44,#43);
#46=EDGE_CURVE('',#23,#24,#45,.T.);
#47=ORIENTED_EDGE('',*,*,#46,.F.);
#48=DIRECTION('',(1.000000,0.000000,0.000000));
#49=VECTOR('',#48,1.0);
#50=CARTESIAN_POINT('',(0.000000,0.000000,0.000000));
#51=LINE('',#50,#49);
#52=EDGE_CURVE('',#22,#23,#51,.T.);
#53=ORIENTED_EDGE('',*,*,#52,.F.);
#54=EDGE_LOOP('',(#35,#41,#47,#53));
#55=FACE_OUTER_BOUND('',#54,.T.);
#56=CARTESIAN_POINT('',(0.000000,0.000000,0.000000));
#57=DIRECTION('',(0.000000,0.000000,-1.000000));
#58=DIRECTION('',(0.000000,1.000000,0.000000));
#59=AXIS2_PLACEMENT_3D('',#56,#57,#58);
#60=PLANE('',#59);
#61=ADVANCED_FACE('',(#55),#60,.T.);
#62=DIRECTION('',(1.000000,0.000000,0.000000));
#63=VECTOR('',#62,1.0);
#64=CARTESIAN_POINT('',(0.000000,0.000000,10.000000));
#65=LINE('',#64,#63);
#66=EDGE_CURVE('',#26,#27,#65,.T.);
#67=ORIENTED_EDGE('',*,*,#66,.T.);
#68=DIRECTION('',(0.000000,1.000000,0.000000));
#69=VECTOR('',#68,1.0);
#70=CARTESIAN_POINT('',(30.000000,0.000000,10.000000));
#71=LINE('',#70,#69);
#72=EDGE_CURVE('',#27,#28,#71,.T.);
#73=ORIENTED_EDGE('',*,*,#72,.T.);
#74=DIRECTION('',(-1.000000,0.000000,0.000000));
#75=VECTOR('',#74,1.0);
#76=CARTESIAN_POINT('',(30.000000,20.000000,10.000000));
#77=LINE('',#76,#75);
#78=EDGE_CURVE('',#28,#29,#77,.T.);
#79=ORIENTED_EDGE('',*,*,#78,.T.);
#80=DIRECTION('',(0.000000,1.000000,0.000000));
#81=VECTOR('',#80,1.0);
#82=CARTESIAN_POINT('',(0.000000,0.000000,10.000000));
#83=LINE('',#82,#81);
#84=EDGE_CURVE('',#26,#29,#83,.T.);
#85=ORIENTED_EDGE('',*,*,#84,.F.);
#86=EDGE_LOOP('',(#67,#73,#79,#85));
#87=FACE_OUTER_BOUND('',#86,.T.);
#88=CARTESIAN_POINT('',(0.000000,0.000000,10.000000));
#89=DIRECTION('',(0.000000,0.000000,1.000000));
#90=DIRECTION('',(1.000000,0.000000,0.000000));
#91=AXIS2_PLACEMENT_3D('',#88,#89,#90);
#92=PLANE('',#91);
#93=ADVANCED_FACE('',(#87),#92,.T.);
#94=ORIENTED_EDGE('',*,*,#52,.T.);
#95=DIRECTION('',(0.000000,0.000000,1.000000));
#96=VECTOR('',#95,1.0);
#97=CARTESIAN_POINT('',(30.000000,0.000000,0.000000));
#98=LINE('',#97,#96);
#99=EDGE_CURVE('',#23,#27,#98,.T.);
#100=ORIENTED_EDGE('',*,*,#99,.T.);
#101=ORIENTED_EDGE('',*,*,#66,.F.);
#102=DIRECTION('',(0.000000,0.000000,1.000000));
#103=VECTOR('',#102,1.0);
#104=CARTESIAN_POINT('',(0.000000,0.000000,0.000000));
#105=LINE('',#104,#103);
#106=EDGE_CURVE('',#22,#26,#105,.T.);
#107=ORIENTED_EDGE('',*,*,#106,.F.);
#108=EDGE_LOOP('',(#94,#100,#101,#107));
#109=FACE_OUTER_BOUND('',#108,.T.);
#110=CARTESIAN_POINT('',(0.000000,0.000000,0.000000));
#111=DIRECTION('',(0.000000,-1.000000,0.000000));
#112=DIRECTION('',(1.000000,0.000000,0.000000));
#113=AXIS2_PLACEMENT_3D('',#110,#111,#112);
#114=PLANE('',#113);
#115=ADVANCED_FACE('',(#109),#114,.T.);
#116=ORIENTED_EDGE('',*,*,#46,.T.);
#117=DIRECTION('',(0.000000,0.000000,1.000000));
#118=VECTOR('',#117,1.0);
#119=CARTESIAN_POINT('',(30.000000,20.000000,0.000000));
#120=LINE('',#119,#118);
#121=EDGE_CURVE('',#24,#28,#120,.T.);
#122=ORIENTED_EDGE('',*,*,#121,.T.);
#123=ORIENTED_EDGE('',*,*,#72,.F.);
#124=ORIENTED_EDGE('',*,*,#99,.F.);
#125=EDGE_LOOP('',(#116,#122,#123,#124));
#126=FACE_OUTER_BOUND('',#125,.T.);
#127=CARTESIAN_POINT('',(30.000000,0.000000,0.000000));
#128=DIRECTION('',(1.000000,0.000000,0.000000));
#129=DIRECTION('',(0.000000,1.000000,0.000000));
#130=AXIS2_PLACEMENT_3D('',#127,#128,#129);
#131=PLANE('',#130);
#132=ADVANCED_FACE('',(#126),#131,.T.);
#133=ORIENTED_EDGE('',*,*,#40,.T.);
#134=DIRECTION('',(0.000000,0.000000,1.000000));
#135=VECTOR('',#134,1.0);
#136=CARTESIAN_POINT('',(0.000000,20.000000,0.000000));
#137=LINE('',#136,#135);
#138=EDGE_CURVE('',#25,#29,#137,.T.);
#139=ORIENTED_EDGE('',*,*,#138,.T.);
#140=ORIENTED_EDGE('',*,*,#78,.F.);
#141=ORIENTED_EDGE('',*,*,#121,.F.);
#142=EDGE_LOOP('',(#133,#139,#140,#141));
#143=FACE_OUTER_BOUND('',#142,.T.);
#144=CARTESIAN_POINT('',(30.000000,20.000000,0.000000));
#145=DIRECTION('',(0.000000,1.000000,0.000000));
#146=DIRECTION('',(-1.000000,0.000000,0.000000));
#147=AXIS2_PLACEMENT_3D('',#144,#145,#146);
#148=PLANE('',#147);
#149=ADVANCED_FACE('',(#143),#148,.T.);
#150=ORIENTED_EDGE('',*,*,#34,.F.);
#151=ORIENTED_EDGE('',*,*,#106,.T.);
#152=ORIENTED_EDGE('',*,*,#84,.T.);
#153=ORIENTED_EDGE('',*,*,#138,.F.);
#154=EDGE_LOOP('',(#150,#151,#152,#153));
#155=FACE_OUTER_BOUND('',#154,.T.);
#156=CARTESIAN_POINT('',(0.000000,20.000000,0.000000));
#157=DIRECTION('',(-1.000000,0.000000,0.000000));
#158=DIRECTION('',(0.000000,-1.000000,0.000000));
#159=AXIS2_PLACEMENT_3D('',#156,#157,#158);
#160=PLANE('',#159);
#161=ADVANCED_FACE('',(#155),#160,.T.);
#162=CLOSED_SHELL('',(#61,#93,#115,#132,#149,#161));
#163=MANIFOLD_SOLID_BREP('block',#162);
#164=CARTESIAN_POINT('',(0.0,0.0,0.0));
#165=DIRECTION('',(0.0,0.0,1.0));
#166=DIRECTION('',(1.0,0.0,0.0));
#167=AXIS2_PLACEMENT_3D('',#164,#165,#166);
#168=ADVANCED_BREP_SHAPE_REPRESENTATION('',(#163,#167),#13);
#169=SHAPE_DEFINITION_REPRESENTATION(#8,#168);
ENDSEC;
END-ISO-10303-21;
