ISO-10303-21;
HEADER;
FILE_DESCRIPTION((''),'2;1');
FILE_NAME('pyramid','2026-01-01T00:00:00',(''),(''),'step-viewer-demo','',' ');
FILE_SCHEMA(('AUTOMOTIVE_DESIGN { 1 0 10303 214 1 1 1 1 }'));
ENDSEC;
DATA;
#1=APPLICATION_CONTEXT('automotive design');
#2=APPLICATION_PROTOCOL_DEFINITION('international standard','automotive_design',2000,#1);
#3=PRODUCT('pyramid','pyramid','',(#4));
#4=PRODUCT_CONTEXT('',#1,'mechanical');
#5=PRODUCT_DEFINITION_FORMATION('','',#3);
#6=PRODUCT_DEFINITION_CONTEXT('part definition',#1,'design');
#7=PRODUCT_DEFINITION('','',#5,#6);
#8=PRODUCT_DEFINITION_SHAPE('','',#7);
#9=(LENGTH_UNIT()NAMED_UNIT(*)SI_UNIT(.MILLI.,.METRE.));
#10=(NAMED_UNIT(*)PLANE_ANGLE_UNIT()SI_UNIT($,.RADIAN.));
#11=(NAMED_UNIT(*)SI_UNIT($,.STERADIAN.)SOLID_ANGLE_UNIT());
#12=UNCERTAINTY_MEASURE_WITH_UNIT(LENGTH_MEASURE(1.E-07),#9,'distance_accuracy_value','confusion accuracy');
#13=(GEOMETRIC_REPRESENTATION_CONTEXT(3)GLOBAL_UNCERTAINTY_ASSIGNED_CONTEXT((#12))GLOBAL_UNIT_ASSIGNED_CONTEXT((#9,#10,#11))REPRESENTATION_CONTEXT('Context','3D'));
#14=CARTESIAN_POINT('',(0.000000,0.000000,0.000000));
#15=CARTESIAN_POINT('',(20.000000,0.000000,0.000000));
#16=CARTESIAN_POINT('',(20.000000,20.000000,0.000000));
#17=CARTESIAN_POINT('',(0.000000,20.000000,0.000000));
#18=CARTESIAN_POINT('',(10.000000,10.000000,15.000000));
#19=VERTEX_POINT('',#14);
#20=VERTEX_POINT('',#15);
#21=VERTEX_POINT('',#16);
#22=VERTEX_POINT('',#17);
#23=VERTEX_POINT('',#18);
#24=DIRECTION('',(0.000000,1.000000,0.000000));
#25=VECTOR('',#24,1.0);
#26=CARTESIAN_POINT('',(0.000000,0.000000,0.000000));
#27=LINE('',#26,#25);
#28=EDGE_CURVE('',#19,#22,#27,.T.);
#29=ORIENTED_EDGE('',*,*,#28,.T.);
#30=DIRECTION('',(-1.000000,0.000000,0.000000));
#31=VECTOR('',#30,1.0);
#32=CARTESIAN_POINT('',(20.000000,20.000000,0.000000));
#33=LINE('',#32,#31);
#34=EDGE_CURVE('',#21,#22,#33,.T.);
#35=ORIENTED_EDGE('',*,*,#34,.F.);
#36=DIRECTION('',(0.000000,1.000000,0.000000));
#37=VECTOR('',#36,1.0);
#38=CARTESIAN_POINT('',(20.000000,0.000000,0.000000));
#39=LINE('',#38,#37);
#40=EDGE_CURVE('',#20,#21,#39,.T.);
#41=ORIENTED_EDGE('',*,*,#40,.F.);
#42=DIRECTION('',(1.000000,0.000000,0.000000));
#43=VECTOR('',#42,1.0);
#44=CARTESIAN_POINT('',(0.000000,0.000000,0.000000));
#45=LINE('',#44,#43);
#46=EDGE_CURVE('',#19,#20,#45,.T.);
#47=ORIENTED_EDGE('',*,*,#46,.F.);
#48=EDGE_LOOP('',(#29,#35,#41,#47));
#49=FACE_OUTER_BOUND('',#48,.T.);
#50=CARTESIAN_POINT('',(0.000000,0.000000,0.000000));
#51=DIRECTION('',(0.000000,0.000000,-1.000000));
#52=DIRECTION('',(0.000000,1.000000,0.000000));
#53=AXIS2_PLACEMENT_3D('',#50,#51,#52);
#54=PLANE('',#53);
#55=ADVANCED_FACE('',(#49),#54,.T.);
#56=ORIENTED_EDGE('',*,*,#46,.T.);
#57=DIRECTION('',(-0.485071,0.485071,0.727607));
#58=VECTOR('',#57,1.0);
#59=CARTESIAN_POINT('',(20.000000,0.000000,0.000000));
#60=LINE('',#59,#58);
#61=EDGE_CURVE('',#20,#23,#60,.T.);
#62=ORIENTED_EDGE('',*,*,#61,.T.);
#63=DIRECTION('',(0.485071,0.485071,0.727607));
#64=VECTOR('',#63,1.0);
#65=CARTESIAN_POINT('',(0.000000,0.000000,0.000000));
#66=LINE('',#65,#64);
#67=EDGE_CURVE('',#19,#23,#66,.T.);
#68=ORIENTED_EDGE('',*,*,#67,.F.);
#69=EDGE_LOOP('',(#56,#62,#68));
#70=FACE_OUTER_BOUND('',#69,.T.);
#71=CARTESIAN_POINT('',(0.000000,0.000000,0.000000));
#72=DIRECTION('',(0.000000,-0.832050,0.554700));
#73=DIRECTION('',(1.000000,0.000000,0.000000));
#74=AXIS2_PLACEMENT_3D('',#71,#72,#73);
#75=PLANE('',#74);
#76=ADVANCED_FACE('',(#70),#75,.T.);
#77=ORIENTED_EDGE('',*,*,#40,.T.);
#78=DIRECTION('',(-0.485071,-0.485071,0.727607));
#79=VECTOR('',#78,1.0);
#80=CARTESIAN_POINT('',(20.000000,20.000000,0.000000));
#81=LINE('',#80,#79);
#82=EDGE_CURVE('',#21,#23,#81,.T.);
#83=ORIENTED_EDGE('',*,*,#82,.T.);
#84=ORIENTED_EDGE('',*,*,#61,.F.);
#85=EDGE_LOOP('',(#77,#83,#84));
#86=FACE_OUTER_BOUND('',#85,.T.);
#87=CARTESIAN_POINT('',(20.000000,0.000000,0.000000));
#88=DIRECTION('',(0.832050,0.000000,0.554700));
#89=DIRECTION('',(0.000000,1.000000,0.000000));
#90=AXIS2_PLACEMENT_3D('',#87,#88,#89);
#91=PLANE('',#90);
#92=ADVANCED_FACE('',(#86),#91,.T.);
#93=ORIENTED_EDGE('',*,*,#34,.T.);
#94=DIRECTION('',(0.485071,-0.485071,0.727607));
#95=VECTOR('',#94,1.0);
#96=CARTESIAN_POINT('',(0.000000,20.000000,0.000000));
#97=LINE('',#96,#95);
#98=EDGE_CURVE('',#22,#23,#97,.T.);
#99=ORIENTED_EDGE('',*,*,#98,.T.);
#100=ORIENTED_EDGE('',*,*,#82,.F.);
#101=EDGE_LOOP('',(#93,#99,#100));
#102=FACE_OUTER_BOUND('',#101,.T.);
#103=CARTESIAN_POINT('',(20.000000,20.000000,0.000000));
#104=DIRECTION('',(0.000000,0.832050,0.554700));
#105=DIRECTION('',(-1.000000,0.000000,0.000000));
#106=AXIS2_PLACEMENT_3D('',#103,#104,#105);
#107=PLANE('',#106);
#108=ADVANCED_FACE('',(#102),#107,.T.);
#109=ORIENTED_EDGE('',*,*,#28,.F.);
#110=ORIENTED_EDGE('',*,*,#67,.T.);
#111=ORIENTED_EDGE('',*,*,#98,.F.);
#112=EDGE_LOOP('',(#109,#110,#111));
#113=FACE_OUTER_BOUND('',#112,.T.);
#114=CARTESIAN_POINT('',(0.000000,20.000000,0.000000));
#115=DIRECTION('',(-0.832050,0.000000,0.554700));
#116=DIRECTION('',(0.000000,-1.000000,0.000000));
#117=AXIS2_PLACEMENT_3D('',#114,#115,#116);
#118=PLANE('',#117);
#119=ADVANCED_FACE('',(#113),#118,.T.);
#120=CLOSED_SHELL('',(#55,#76,#92,#108,#119));
#121=MANIFOLD_SOLID_BREP('pyramid',#120);
#122=CARTESIAN_POINT('',(0.0,0.0,0.0));
#123=DIRECTION('',(0.0,0.0,1.0));
#124=DIRECTION('',(1.0,0.0,0.0));
#125=AXIS2_PLACEMENT_3D('',#122,#123,#124);
#126=ADVANCED_BREP_SHAPE_REPRESENTATION('',(#121,#125),#13);
#127=SHAPE_DEFINITION_REPRESENTATION(#8,#126);
ENDSEC;
END-ISO-10303-21;
