ISO-10303-21;
HEADER;
FILE_DESCRIPTION((''),'2;1');
FILE_NAME('tetra','2026-01-01T00:00:00',(''),(''),'step-viewer-demo','',' ');
FILE_SCHEMA(('AUTOMOTIVE_DESIGN { 1 0 10303 214 1 1 1 1 }'));
ENDSEC;
DATA;
#1=APPLICATION_CONTEXT('automotive design');
#2=APPLICATION_PROTOCOL_DEFINITION('international standard','automotive_design',2000,#1);
#3=PRODUCT('tetra','tetra','',(#4));
#4=PRODUCT_CONTEXT('',#1,'mechanical');
#5=PRODUCT_DEFINITION_FORMATION('','',#3);
#6=PRODUCT_DEFINITION_CONTEXT('part definition',#1,'design');
#7=PRODUCT_DEFINITION('','',#5,#6);
#8=PRODUCT_DEFINITION_SHAPE('','',#7);
#9=(LENGTH_UNIT()NAMED_UNIT(*)SI_UNIT(.MILLI.,.METRE.));
#10=(NAMED_UNIT(*)PLANE_ANGLE_UNIT()SI_UNIT($,.RADIAN.));
#11=(NAMED_UNIT(*)SI_UNIT($,.STERADIAN.)SOLID_ANGLE_UNIT());
#12=UNCERTAINTY_MEASURE_WITH_UNIT(LENGTH_MEASURE(1.E-07),#9,'distance_accuracy_value','confusion accuracy');
#13=(GEOMETRIC_REPRESENTATION_CONTEXT(3)GLOBAL_UNCERTAINTY_ASSIGNED_CONTEXT((#12))GLOBAL_UNIT_ASSIGNED_CONTEXT((#9,#10,#11))REPRESENTATION_CONTEXT('Context','3D'));
#14=CARTESIAN_POINT('',(0.000000,0.000000,0.000000));
#15=CARTESIAN_POINT('',(20.000000,0.000000,0.000000));
#16=CARTESIAN_POINT('',(10.000000,17.320000,0.000000));
#17=CARTESIAN_POINT('',(10.000000,5.770000,16.330000));
#18=VERTEX_POINT('',#14);
#19=VERTEX_POINT('',#15);
#20=VERTEX_POINT('',#16);
#21=VERTEX_POINT('',#17);
#22=DIRECTION('',(0.500011,0.866019,0.000000));
#23=VECTOR('',#22,1.0);
#24=CARTESIAN_POINT('',(0.000000,0.000000,0.000000));
#25=LINE('',#24,#23);
#26=EDGE_CURVE('',#18,#20,#25,.T.);
#27=ORIENTED_EDGE('',*,*,#26,.T.);
#28=DIRECTION('',(-0.500011,0.866019,0.000000));
#29=VECTOR('',#28,1.0);
#30=CARTESIAN_POINT('',(20.000000,0.000000,0.000000));
#31=LINE('',#30,#29);
#32=EDGE_CURVE('',#19,#20,#31,.T.);
#33=ORIENTED_EDGE('',*,*,#32,.F.);
#34=DIRECTION('',(1.000000,0.000000,0.000000));
#35=VECTOR('',#34,1.0);
#36=CARTESIAN_POINT('',(0.000000,0.000000,0.000000));
#37=LINE('',#36,#35);
#38=EDGE_CURVE('',#18,#19,#37,.T.);
#39=ORIENTED_EDGE('',*,*,#38,.F.);
#40=EDGE_LOOP('',(#27,#33,#39));
#41=FACE_OUTER_BOUND('',#40,.T.);
#42=CARTESIAN_POINT('',(0.000000,0.000000,0.000000));
#43=DIRECTION('',(0.000000,0.000000,-1.000000));
#44=DIRECTION('',(0.500011,0.866019,0.000000));
#45=AXIS2_PLACEMENT_3D('',#42,#43,#44);
#46=PLANE('',#45);
#47=ADVANCED_FACE('',(#41),#46,.T.);
#48=ORIENTED_EDGE('',*,*,#38,.T.);
#49=DIRECTION('',(-0.500024,0.288514,0.816539));
#50=VECTOR('',#49,1.0);
#51=CARTESIAN_POINT('',(20.000000,0.000000,0.000000));
#52=LINE('',#51,#50);
#53=EDGE_CURVE('',#19,#21,#52,.T.);
#54=ORIENTED_EDGE('',*,*,#53,.T.);
#55=DIRECTION('',(0.500024,0.288514,0.816539));
#56=VECTOR('',#55,1.0);
#57=CARTESIAN_POINT('',(0.000000,0.000000,0.000000));
#58=LINE('',#57,#56);
#59=EDGE_CURVE('',#18,#21,#58,.T.);
#60=ORIENTED_EDGE('',*,*,#59,.F.);
#61=EDGE_LOOP('',(#48,#54,#60));
#62=FACE_OUTER_BOUND('',#61,.T.);
#63=CARTESIAN_POINT('',(0.000000,0.000000,0.000000));
#64=DIRECTION('',(0.000000,-0.942873,0.333152));
#65=DIRECTION('',(1.000000,0.000000,0.000000));
#66=AXIS2_PLACEMENT_3D('',#63,#64,#65);
#67=PLANE('',#66);
#68=ADVANCED_FACE('',(#62),#67,.T.);
#69=ORIENTED_EDGE('',*,*,#32,.T.);
#70=DIRECTION('',(0.000000,-0.577448,0.816427));
#71=VECTOR('',#70,1.0);
#72=CARTESIAN_POINT('',(10.000000,17.320000,0.000000));
#73=LINE('',#72,#71);
#74=EDGE_CURVE('',#20,#21,#73,.T.);
#75=ORIENTED_EDGE('',*,*,#74,.T.);
#76=ORIENTED_EDGE('',*,*,#53,.F.);
#77=EDGE_LOOP('',(#69,#75,#76));
#78=FACE_OUTER_BOUND('',#77,.T.);
#79=CARTESIAN_POINT('',(20.000000,0.000000,0.000000));
#80=DIRECTION('',(0.816465,0.471400,0.333415));
#81=DIRECTION('',(-0.500011,0.866019,0.000000));
#82=AXIS2_PLACEMENT_3D('',#79,#80,#81);
#83=PLANE('',#82);
#84=ADVANCED_FACE('',(#78),#83,.T.);
#85=ORIENTED_EDGE('',*,*,#26,.F.);
#86=ORIENTED_EDGE('',*,*,#59,.T.);
#87=ORIENTED_EDGE('',*,*,#74,.F.);
#88=EDGE_LOOP('',(#85,#86,#87));
#89=FACE_OUTER_BOUND('',#88,.T.);
#90=CARTESIAN_POINT('',(10.000000,17.320000,0.000000));
#91=DIRECTION('',(-0.816465,0.471400,0.333415));
#92=DIRECTION('',(-0.500011,-0.866019,0.000000));
#93=AXIS2_PLACEMENT_3D('',#90,#91,#92);
#94=PLANE('',#93);
#95=ADVANCED_FACE('',(#89),#94,.T.);
#96=CLOSED_SHELL('',(#47,#68,#84,#95));
#97=MANIFOLD_SOLID_BREP('tetra',#96);
#98=CARTESIAN_POINT('',(0.0,0.0,0.0));
#99=DIRECTION('',(0.0,0.0,1.0));
#100=DIRECTION('',(1.0,0.0,0.0));
#101=AXIS2_PLACEMENT_3D('',#98,#99,#100);
#102=ADVANCED_BREP_SHAPE_REPRESENTATION('',(#97,#101),#13);
#103=SHAPE_DEFINITION_REPRESENTATION(#8,#102);
ENDSEC;
END-ISO-10303-21;
